{
    "asset" : {
        "generator" : "Khronos glTF Blender I/O v3.4.50",
        "version" : "2.0"
    },
    "scene" : 0,
    "scenes" : [
        {
            "name" : "Scene",
            "nodes" : [
                0
            ]
        }
    ],
    "nodes" : [
        {
            "mesh" : 0,
            "name" : "Lines.014",
            "rotation" : [
                0,
                -1,
                0,
                1.6292068494294654e-07
            ],
            "translation" : [
                0,
                -0.905756950378418,
                0
            ]
        }
    ],
    "materials" : [
        {
            "doubleSided" : true,
            "emissiveFactor" : [
                1,
                1,
                1
            ],
            "name" : "white",
            "pbrMetallicRoughness" : {
                "baseColorFactor" : [
                    0,
                    0,
                    0,
                    1
                ]
            }
        }
    ],
    "meshes" : [
        {
            "name" : "Lines.014",
            "primitives" : [
                {
                    "attributes" : {
                        "POSITION" : 0,
                        "TEXCOORD_0" : 1,
                        "NORMAL" : 2
                    },
                    "indices" : 3,
                    "material" : 0
                }
            ]
        }
    ],
    "accessors" : [
        {
            "bufferView" : 0,
            "componentType" : 5126,
            "count" : 24769,
            "max" : [
                4.614274024963379,
                3.6335248947143555,
                3.556396007537842
            ],
            "min" : [
                -3.7744429111480713,
                -0.31400740146636963,
                -0.7705649137496948
            ],
            "type" : "VEC3"
        },
        {
            "bufferView" : 1,
            "componentType" : 5126,
            "count" : 24769,
            "type" : "VEC2"
        },
        {
            "bufferView" : 2,
            "componentType" : 5126,
            "count" : 24769,
            "type" : "VEC3"
        },
        {
            "bufferView" : 3,
            "componentType" : 5123,
            "count" : 39837,
            "type" : "SCALAR"
        }
    ],
    "bufferViews" : [
        {
            "buffer" : 0,
            "byteLength" : 297228,
            "byteOffset" : 0,
            "target" : 34962
        },
        {
            "buffer" : 0,
            "byteLength" : 198152,
            "byteOffset" : 297228,
            "target" : 34962
        },
        {
            "buffer" : 0,
            "byteLength" : 297228,
            "byteOffset" : 495380,
            "target" : 34962
        },
        {
            "buffer" : 0,
            "byteLength" : 79674,
            "byteOffset" : 792608,
            "target" : 34963
        }
    ],
    "buffers" : [
        {
            "byteLength" : 872284,
            "uri" : "data:application/octet-stream;base64,"
        }
    ]
}
