{
    "asset" : {
        "generator" : "Khronos glTF Blender I/O v3.4.50",
        "version" : "2.0"
    },
    "scene" : 0,
    "scenes" : [
        {
            "name" : "Scene",
            "nodes" : [
                0
            ]
        }
    ],
    "nodes" : [
        {
            "mesh" : 0,
            "name" : "Lines",
            "rotation" : [
                0,
                -1,
                0,
                1.6292068494294654e-07
            ],
            "translation" : [
                0,
                -0.855370819568634,
                0.022205498069524765
            ]
        }
    ],
    "materials" : [
        {
            "doubleSided" : true,
            "emissiveFactor" : [
                1,
                1,
                1
            ],
            "name" : "light",
            "pbrMetallicRoughness" : {
                "baseColorFactor" : [
                    0,
                    0,
                    0,
                    1
                ]
            }
        }
    ],
    "meshes" : [
        {
            "name" : "Lines",
            "primitives" : [
                {
                    "attributes" : {
                        "POSITION" : 0,
                        "TEXCOORD_0" : 1,
                        "NORMAL" : 2
                    },
                    "indices" : 3,
                    "material" : 0
                }
            ]
        }
    ],
    "accessors" : [
        {
            "bufferView" : 0,
            "componentType" : 5126,
            "count" : 76843,
            "max" : [
                4.617578983306885,
                3.6332345008850098,
                3.5567924976348877
            ],
            "min" : [
                -3.775294780731201,
                -0.39014706015586853,
                -5.7040934562683105
            ],
            "type" : "VEC3"
        },
        {
            "bufferView" : 1,
            "componentType" : 5126,
            "count" : 76843,
            "type" : "VEC2"
        },
        {
            "bufferView" : 2,
            "componentType" : 5126,
            "count" : 76843,
            "type" : "VEC3"
        },
        {
            "bufferView" : 3,
            "componentType" : 5125,
            "count" : 77397,
            "type" : "SCALAR"
        }
    ],
    "bufferViews" : [
        {
            "buffer" : 0,
            "byteLength" : 922116,
            "byteOffset" : 0,
            "target" : 34962
        },
        {
            "buffer" : 0,
            "byteLength" : 614744,
            "byteOffset" : 922116,
            "target" : 34962
        },
        {
            "buffer" : 0,
            "byteLength" : 922116,
            "byteOffset" : 1536860,
            "target" : 34962
        },
        {
            "buffer" : 0,
            "byteLength" : 309588,
            "byteOffset" : 2458976,
            "target" : 34963
        }
    ],
    "buffers" : [
        {
            "byteLength" : 2768564,
            "uri" : "data:application/octet-stream;base64,"
        }
    ]
}
