{
    "asset" : {
        "generator" : "Khronos glTF Blender I/O v3.4.50",
        "version" : "2.0"
    },
    "scene" : 0,
    "scenes" : [
        {
            "name" : "Scene",
            "nodes" : [
                0,
                1
            ]
        }
    ],
    "nodes" : [
        {
            "mesh" : 0,
            "name" : "Torus.002_Glow_0",
            "rotation" : [
                0.4969930946826935,
                0.35976937413215637,
                0.10858228802680969,
                0.782159686088562
            ],
            "scale" : [
                0.16655771434307098,
                0.16655772924423218,
                0.16655772924423218
            ],
            "translation" : [
                0,
                0,
                -5.75107479095459
            ]
        },
        {
            "mesh" : 1,
            "name" : "Torus.002_Glow_0.001",
            "rotation" : [
                -0.13988888263702393,
                -0.8034054040908813,
                0.48910459876060486,
                0.3094310760498047
            ],
            "scale" : [
                -0.9740839004516602,
                -0.9740839600563049,
                -0.9740837216377258
            ],
            "translation" : [
                0,
                0,
                5.771478652954102
            ]
        }
    ],
    "materials" : [
        {
            "doubleSided" : true,
            "name" : "Glow",
            "pbrMetallicRoughness" : {
                "baseColorFactor" : [
                    0.7618677020072937,
                    0.8000000715255737,
                    0,
                    1
                ],
                "metallicFactor" : 0,
                "roughnessFactor" : 0.31950461864471436
            }
        },
        {
            "doubleSided" : true,
            "name" : "Lego",
            "pbrMetallicRoughness" : {
                "baseColorFactor" : [
                    1,
                    0,
                    0,
                    1
                ],
                "metallicFactor" : 0,
                "roughnessFactor" : 0.4000000059604645
            }
        }
    ],
    "meshes" : [
        {
            "name" : "Torus.002_Glow_0",
            "primitives" : [
                {
                    "attributes" : {
                        "POSITION" : 0,
                        "TEXCOORD_0" : 1,
                        "NORMAL" : 2
                    },
                    "indices" : 3,
                    "material" : 0
                },
                {
                    "attributes" : {
                        "POSITION" : 4,
                        "TEXCOORD_0" : 5,
                        "NORMAL" : 6
                    },
                    "indices" : 7,
                    "material" : 1
                }
            ]
        },
        {
            "name" : "Torus.002_Glow_0.001",
            "primitives" : [
                {
                    "attributes" : {
                        "POSITION" : 8,
                        "TEXCOORD_0" : 9,
                        "NORMAL" : 10
                    },
                    "indices" : 3,
                    "material" : 0
                },
                {
                    "attributes" : {
                        "POSITION" : 11,
                        "TEXCOORD_0" : 12,
                        "NORMAL" : 13
                    },
                    "indices" : 7,
                    "material" : 1
                }
            ]
        }
    ],
    "accessors" : [
        {
            "bufferView" : 0,
            "componentType" : 5126,
            "count" : 957,
            "max" : [
                15.199999809265137,
                15.008172035217285,
                14.999886512756348
            ],
            "min" : [
                -14.958643913269043,
                -15,
                -15.028227806091309
            ],
            "type" : "VEC3"
        },
        {
            "bufferView" : 1,
            "componentType" : 5126,
            "count" : 957,
            "type" : "VEC2"
        },
        {
            "bufferView" : 2,
            "componentType" : 5126,
            "count" : 957,
            "type" : "VEC3"
        },
        {
            "bufferView" : 3,
            "componentType" : 5123,
            "count" : 5670,
            "type" : "SCALAR"
        },
        {
            "bufferView" : 4,
            "componentType" : 5126,
            "count" : 18807,
            "max" : [
                16.493106842041016,
                3.691133975982666,
                8.025075912475586
            ],
            "min" : [
                -4.673294544219971,
                -10.055909156799316,
                -15.108729362487793
            ],
            "type" : "VEC3"
        },
        {
            "bufferView" : 5,
            "componentType" : 5126,
            "count" : 18807,
            "type" : "VEC2"
        },
        {
            "bufferView" : 6,
            "componentType" : 5126,
            "count" : 18807,
            "type" : "VEC3"
        },
        {
            "bufferView" : 7,
            "componentType" : 5123,
            "count" : 59322,
            "type" : "SCALAR"
        },
        {
            "bufferView" : 8,
            "componentType" : 5126,
            "count" : 957,
            "max" : [
                15.199999809265137,
                15.008172035217285,
                14.999886512756348
            ],
            "min" : [
                -14.958643913269043,
                -15,
                -15.028227806091309
            ],
            "type" : "VEC3"
        },
        {
            "bufferView" : 9,
            "componentType" : 5126,
            "count" : 957,
            "type" : "VEC2"
        },
        {
            "bufferView" : 10,
            "componentType" : 5126,
            "count" : 957,
            "type" : "VEC3"
        },
        {
            "bufferView" : 11,
            "componentType" : 5126,
            "count" : 18807,
            "max" : [
                16.493106842041016,
                3.691133975982666,
                8.025075912475586
            ],
            "min" : [
                -4.673294544219971,
                -10.055909156799316,
                -15.108729362487793
            ],
            "type" : "VEC3"
        },
        {
            "bufferView" : 12,
            "componentType" : 5126,
            "count" : 18807,
            "type" : "VEC2"
        },
        {
            "bufferView" : 13,
            "componentType" : 5126,
            "count" : 18807,
            "type" : "VEC3"
        }
    ],
    "bufferViews" : [
        {
            "buffer" : 0,
            "byteLength" : 11484,
            "byteOffset" : 0,
            "target" : 34962
        },
        {
            "buffer" : 0,
            "byteLength" : 7656,
            "byteOffset" : 11484,
            "target" : 34962
        },
        {
            "buffer" : 0,
            "byteLength" : 11484,
            "byteOffset" : 19140,
            "target" : 34962
        },
        {
            "buffer" : 0,
            "byteLength" : 11340,
            "byteOffset" : 30624,
            "target" : 34963
        },
        {
            "buffer" : 0,
            "byteLength" : 225684,
            "byteOffset" : 41964,
            "target" : 34962
        },
        {
            "buffer" : 0,
            "byteLength" : 150456,
            "byteOffset" : 267648,
            "target" : 34962
        },
        {
            "buffer" : 0,
            "byteLength" : 225684,
            "byteOffset" : 418104,
            "target" : 34962
        },
        {
            "buffer" : 0,
            "byteLength" : 118644,
            "byteOffset" : 643788,
            "target" : 34963
        },
        {
            "buffer" : 0,
            "byteLength" : 11484,
            "byteOffset" : 762432,
            "target" : 34962
        },
        {
            "buffer" : 0,
            "byteLength" : 7656,
            "byteOffset" : 773916,
            "target" : 34962
        },
        {
            "buffer" : 0,
            "byteLength" : 11484,
            "byteOffset" : 781572,
            "target" : 34962
        },
        {
            "buffer" : 0,
            "byteLength" : 225684,
            "byteOffset" : 793056,
            "target" : 34962
        },
        {
            "buffer" : 0,
            "byteLength" : 150456,
            "byteOffset" : 1018740,
            "target" : 34962
        },
        {
            "buffer" : 0,
            "byteLength" : 225684,
            "byteOffset" : 1169196,
            "target" : 34962
        }
    ],
    "buffers" : [
        {
            "byteLength" : 1394880,
            "uri" : "data:application/octet-stream;base64,"
        }
    ]
}
