{
    "asset" : {
        "generator" : "Khronos glTF Blender I/O v3.4.50",
        "version" : "2.0"
    },
    "scene" : 0,
    "scenes" : [
        {
            "name" : "Scene",
            "nodes" : [
                0
            ]
        }
    ],
    "nodes" : [
        {
            "mesh" : 0,
            "name" : "Dragon_body_Dragon_Body_0",
            "rotation" : [
                0,
                -0.9176640510559082,
                0,
                0.39735716581344604
            ],
            "translation" : [
                6.7370147705078125,
                0,
                -15.390727996826172
            ]
        }
    ],
    "materials" : [
        {
            "doubleSided" : true,
            "emissiveFactor" : [
                1,
                1,
                1
            ],
            "emissiveTexture" : {
                "index" : 0
            },
            "name" : "Dragon_Body",
            "pbrMetallicRoughness" : {
                "baseColorFactor" : [
                    0,
                    0,
                    0,
                    1
                ]
            }
        }
    ],
    "meshes" : [
        {
            "name" : "Dragon_body_Dragon_Body_0",
            "primitives" : [
                {
                    "attributes" : {
                        "POSITION" : 0,
                        "TEXCOORD_0" : 1,
                        "TEXCOORD_1" : 2,
                        "NORMAL" : 3
                    },
                    "indices" : 4,
                    "material" : 0
                }
            ]
        }
    ],
    "textures" : [
        {
            "sampler" : 0,
            "source" : 0
        }
    ],
    "images" : [
        {
            "bufferView" : 5,
            "mimeType" : "image/jpeg",
            "name" : "Dragon_Body_baseColor"
        }
    ],
    "accessors" : [
        {
            "bufferView" : 0,
            "componentType" : 5126,
            "count" : 5324,
            "max" : [
                17.420183181762695,
                11.319450378417969,
                15.259611129760742
            ],
            "min" : [
                -8.8976411819458,
                -8.56143856048584,
                -11.904380798339844
            ],
            "type" : "VEC3"
        },
        {
            "bufferView" : 1,
            "componentType" : 5126,
            "count" : 5324,
            "type" : "VEC2"
        },
        {
            "bufferView" : 2,
            "componentType" : 5126,
            "count" : 5324,
            "type" : "VEC2"
        },
        {
            "bufferView" : 3,
            "componentType" : 5126,
            "count" : 5324,
            "type" : "VEC3"
        },
        {
            "bufferView" : 4,
            "componentType" : 5123,
            "count" : 25344,
            "type" : "SCALAR"
        }
    ],
    "bufferViews" : [
        {
            "buffer" : 0,
            "byteLength" : 63888,
            "byteOffset" : 0,
            "target" : 34962
        },
        {
            "buffer" : 0,
            "byteLength" : 42592,
            "byteOffset" : 63888,
            "target" : 34962
        },
        {
            "buffer" : 0,
            "byteLength" : 42592,
            "byteOffset" : 106480,
            "target" : 34962
        },
        {
            "buffer" : 0,
            "byteLength" : 63888,
            "byteOffset" : 149072,
            "target" : 34962
        },
        {
            "buffer" : 0,
            "byteLength" : 50688,
            "byteOffset" : 212960,
            "target" : 34963
        },
        {
            "buffer" : 0,
            "byteLength" : 219751,
            "byteOffset" : 263648
        }
    ],
    "samplers" : [
        {
            "magFilter" : 9729,
            "minFilter" : 9987
        }
    ],
    "buffers" : [
        {
            "byteLength" : 483400,
            "uri" : "data:application/octet-stream;base64,"
        }
    ]
}
